<svg xmlns="http://www.w3.org/2000/svg" xmlns:xlink="http://www.w3.org/1999/xlink" width="200" zoomAndPan="magnify" viewBox="0 0 150 74.999997" height="100" preserveAspectRatio="xMidYMid meet" version="1.0"><defs><filter x="0%" y="0%" width="100%" height="100%" id="6c1d0ec717"><feColorMatrix values="0 0 0 0 1 0 0 0 0 1 0 0 0 0 1 0 0 0 1 0" color-interpolation-filters="sRGB"/></filter><g/><mask id="d56a331a92"><g filter="url(#6c1d0ec717)"><rect x="-15" width="180" fill="#000000" y="-7.5" height="89.999996" fill-opacity="0.13"/></g></mask><clipPath id="3267e44847"><rect x="0" width="27" y="0" height="35"/></clipPath></defs><g fill="#e4e2dd" fill-opacity="1"><g transform="translate(1.120863, 39.084734)"><g><path d="M 17.273438 -15.039062 L 9.886719 -26.515625 L 0.417969 -26.515625 L 0.417969 0 L 10.265625 0 L 10.265625 -7.5 L 8.105469 -10.984375 L 8.710938 -10.984375 L 15.605469 0 L 25.566406 0 L 25.566406 -26.515625 L 15.71875 -26.515625 L 15.71875 -18.484375 L 17.839844 -15.039062 Z M 17.273438 -15.039062 "/></g></g></g><g fill="#e4e2dd" fill-opacity="1"><g transform="translate(27.066006, 39.084734)"><g><path d="M 11.550781 0.605469 C 17.765625 0.605469 22.800781 -4.433594 22.800781 -10.644531 C 22.800781 -16.855469 17.765625 -21.894531 11.550781 -21.894531 C 5.339844 -21.894531 0.304688 -16.855469 0.304688 -10.644531 C 0.304688 -4.433594 5.339844 0.605469 11.550781 0.605469 Z M 11.550781 -12.574219 C 12.613281 -12.574219 13.484375 -11.703125 13.484375 -10.644531 C 13.484375 -9.582031 12.613281 -8.710938 11.550781 -8.710938 C 10.492188 -8.710938 9.621094 -9.582031 9.621094 -10.644531 C 9.621094 -11.703125 10.492188 -12.574219 11.550781 -12.574219 Z M 11.550781 -12.574219 "/></g></g></g><g fill="#e4e2dd" fill-opacity="1"><g transform="translate(50.094686, 39.084734)"><g><path d="M 10.300781 0 L 16.136719 0 L 16.136719 -8.824219 L 10.152344 -8.824219 C 9.886719 -8.824219 9.660156 -9.050781 9.660156 -9.316406 L 9.660156 -12.460938 L 16.136719 -12.460938 L 16.136719 -21.25 L 9.660156 -21.25 L 9.660156 -26.550781 L 0.339844 -26.550781 L 0.339844 -9.734375 C 0.339844 -3.21875 4.433594 0 10.300781 0 Z M 10.300781 0 "/></g></g></g><g fill="#e4e2dd" fill-opacity="1"><g transform="translate(66.646549, 39.084734)"><g><path d="M 11.324219 -21.894531 C 5.265625 -21.894531 0.378906 -17.007812 0.378906 -10.945312 C 0.378906 -4.925781 5.265625 0 11.324219 0 L 12.652344 0 L 12.652344 -9.050781 L 11.324219 -9.050781 C 10.265625 -9.050781 9.429688 -9.925781 9.429688 -10.945312 C 9.429688 -11.96875 10.265625 -12.839844 11.324219 -12.839844 C 12.347656 -12.839844 13.179688 -11.96875 13.179688 -10.945312 L 13.179688 0 L 22.273438 0 L 22.273438 -10.945312 C 22.273438 -17.007812 17.347656 -21.894531 11.324219 -21.894531 Z M 11.324219 -21.894531 "/></g></g></g><g fill="#e4e2dd" fill-opacity="1"><g transform="translate(89.258591, 39.084734)"><g><path d="M 0.339844 0 L 11.175781 0 C 15.492188 0 19.128906 -0.53125 21.023438 -4.128906 C 22.121094 -6.289062 22.160156 -9.546875 19.695312 -12.195312 L 12.121094 -12.195312 C 13.824219 -11.324219 13.445312 -8.484375 11.175781 -8.484375 C 9.886719 -8.484375 9.167969 -9.394531 8.976562 -10.300781 C 8.75 -11.476562 9.621094 -12.726562 11.097656 -12.726562 L 21.894531 -12.726562 L 21.894531 -21.289062 L 11.097656 -21.289062 C 6.78125 -21.289062 3.183594 -20.644531 1.324219 -17.007812 C 0.226562 -14.886719 0.1875 -11.894531 1.96875 -9.355469 L 4.546875 -9.355469 C 4.660156 -9.203125 4.773438 -9.015625 4.886719 -8.824219 L 0.339844 -8.824219 Z M 0.339844 0 "/></g></g></g><g fill="#e4e2dd" fill-opacity="1"><g transform="translate(30.2116, 61.467026)"><g><path d="M 0.414062 -26.289062 L 0.414062 0 L 19.792969 0 L 19.792969 -9.5 L 10.175781 -9.5 L 10.175781 -26.289062 Z M 0.414062 -26.289062 "/></g></g></g><g fill="#e4e2dd" fill-opacity="1"><g transform="translate(50.340288, 61.467026)"><g><path d="M 12.316406 -9.5 L 19.902344 -9.5 C 22.15625 -11.042969 22.007812 -15.246094 20.84375 -17.3125 C 18.738281 -20.957031 14.796875 -21.707031 11.304688 -21.707031 C 4.542969 -21.59375 0.339844 -16.785156 0.339844 -10.851562 C 0.339844 -4.882812 5.21875 0 11.191406 0 L 21.820312 0 L 21.820312 -9.011719 L 11.191406 -9.011719 C 8.523438 -9.011719 8.675781 -12.957031 11.265625 -12.882812 C 13.59375 -12.84375 13.96875 -10.402344 12.316406 -9.5 Z M 12.316406 -9.5 "/></g></g></g><g fill="#e4e2dd" fill-opacity="1"><g transform="translate(72.496865, 61.467026)"><g><path d="M 10.214844 0 L 16 0 L 16 -8.75 L 10.066406 -8.75 C 9.800781 -8.75 9.578125 -8.976562 9.578125 -9.238281 L 9.578125 -12.355469 L 16 -12.355469 L 16 -21.066406 L 9.578125 -21.066406 L 9.578125 -26.324219 L 0.339844 -26.324219 L 0.339844 -9.652344 C 0.339844 -3.191406 4.394531 0 10.214844 0 Z M 10.214844 0 "/></g></g></g><g fill="#e4e2dd" fill-opacity="1"><g transform="translate(88.907751, 61.467026)"><g><path d="M 13.746094 -21.066406 L 10.402344 -21.066406 C 4.507812 -21.066406 0.375 -17.199219 0.375 -11.304688 L 0.375 0 L 9.613281 0 L 9.613281 -11.679688 C 9.613281 -12.015625 9.800781 -12.242188 10.175781 -12.242188 L 13.746094 -12.242188 Z M 13.746094 -21.066406 "/></g></g></g><g fill="#e4e2dd" fill-opacity="1"><g transform="translate(102.990321, 61.467026)"><g><path d="M 11.230469 -21.707031 C 5.21875 -21.707031 0.375 -16.863281 0.375 -10.851562 C 0.375 -4.882812 5.21875 0 11.230469 0 L 12.542969 0 L 12.542969 -8.976562 L 11.230469 -8.976562 C 10.175781 -8.976562 9.351562 -9.839844 9.351562 -10.851562 C 9.351562 -11.867188 10.175781 -12.730469 11.230469 -12.730469 C 12.242188 -12.730469 13.070312 -11.867188 13.070312 -10.851562 L 13.070312 0 L 22.082031 0 L 22.082031 -10.851562 C 22.082031 -16.863281 17.199219 -21.707031 11.230469 -21.707031 Z M 11.230469 -21.707031 "/></g></g></g><g fill="#e4e2dd" fill-opacity="1"><g transform="translate(125.40977, 61.467026)"><g><path d="M 0.339844 0 L 11.078125 0 C 15.359375 0 18.964844 -0.527344 20.84375 -4.09375 C 21.933594 -6.234375 21.96875 -9.464844 19.527344 -12.09375 L 12.015625 -12.09375 C 13.707031 -11.230469 13.332031 -8.414062 11.078125 -8.414062 C 9.800781 -8.414062 9.089844 -9.3125 8.902344 -10.214844 C 8.675781 -11.378906 9.539062 -12.617188 11.003906 -12.617188 L 21.707031 -12.617188 L 21.707031 -21.105469 L 11.003906 -21.105469 C 6.722656 -21.105469 3.15625 -20.46875 1.3125 -16.863281 C 0.226562 -14.757812 0.1875 -11.792969 1.953125 -9.277344 L 4.507812 -9.277344 C 4.621094 -9.125 4.730469 -8.9375 4.84375 -8.75 L 0.339844 -8.75 Z M 0.339844 0 "/></g></g></g><g mask="url(#d56a331a92)"><g transform="matrix(1, 0, 0, 1, 3, 37)"><g clip-path="url(#3267e44847)"><g fill="#e4e2dd" fill-opacity="1"><g transform="translate(1.12131, 25.269381)"><g><path d="M 0.796875 -6 C 0.796875 -6.675781 0.953125 -7.328125 1.265625 -7.953125 C 1.578125 -8.585938 2.019531 -9.160156 2.59375 -9.671875 C 3.164062 -10.191406 3.742188 -10.644531 4.328125 -11.03125 C 4.921875 -11.414062 5.597656 -11.8125 6.359375 -12.21875 C 4.828125 -14.132812 4.0625 -15.820312 4.0625 -17.28125 C 4.0625 -19.082031 4.691406 -20.519531 5.953125 -21.59375 C 7.210938 -22.675781 9.003906 -23.21875 11.328125 -23.21875 C 13.460938 -23.21875 15.125 -22.617188 16.3125 -21.421875 C 17.507812 -20.222656 18.109375 -18.84375 18.109375 -17.28125 C 18.109375 -16.632812 17.953125 -16 17.640625 -15.375 C 17.328125 -14.757812 16.953125 -14.234375 16.515625 -13.796875 C 16.078125 -13.367188 15.632812 -12.988281 15.1875 -12.65625 C 14.75 -12.320312 14.375 -12.070312 14.0625 -11.90625 L 13.59375 -11.671875 L 16.640625 -8.515625 C 17.304688 -8.804688 18.421875 -9.765625 19.984375 -11.390625 L 23.1875 -8.234375 C 22.15625 -7.054688 21.078125 -6.015625 19.953125 -5.109375 L 24.875 0 L 18.328125 0 L 16.0625 -2.34375 C 15.363281 -1.851562 14.847656 -1.5 14.515625 -1.28125 C 14.179688 -1.070312 13.6875 -0.800781 13.03125 -0.46875 C 12.375 -0.132812 11.703125 0.09375 11.015625 0.21875 C 10.328125 0.351562 9.566406 0.421875 8.734375 0.421875 C 8.015625 0.421875 7.304688 0.359375 6.609375 0.234375 C 5.910156 0.117188 5.203125 -0.0859375 4.484375 -0.390625 C 3.773438 -0.703125 3.15625 -1.085938 2.625 -1.546875 C 2.09375 -2.003906 1.65625 -2.613281 1.3125 -3.375 C 0.96875 -4.144531 0.796875 -5.019531 0.796875 -6 Z M 11.328125 -19.546875 C 10.671875 -19.546875 10.175781 -19.332031 9.84375 -18.90625 C 9.507812 -18.476562 9.34375 -17.9375 9.34375 -17.28125 C 9.34375 -16.882812 9.476562 -16.453125 9.75 -15.984375 C 10.03125 -15.515625 10.3125 -15.144531 10.59375 -14.875 L 11 -14.484375 C 12.695312 -15.398438 13.546875 -16.332031 13.546875 -17.28125 C 13.546875 -18.789062 12.804688 -19.546875 11.328125 -19.546875 Z M 12.6875 -5.796875 L 9.0625 -9.375 C 9.007812 -9.351562 8.925781 -9.316406 8.8125 -9.265625 C 8.707031 -9.222656 8.515625 -9.113281 8.234375 -8.9375 C 7.960938 -8.757812 7.722656 -8.566406 7.515625 -8.359375 C 7.316406 -8.148438 7.128906 -7.867188 6.953125 -7.515625 C 6.773438 -7.171875 6.6875 -6.800781 6.6875 -6.40625 C 6.6875 -5.800781 6.941406 -5.332031 7.453125 -5 C 7.972656 -4.664062 8.578125 -4.5 9.265625 -4.5 C 9.816406 -4.5 10.375 -4.601562 10.9375 -4.8125 C 11.507812 -5.03125 11.945312 -5.25 12.25 -5.46875 Z M 12.6875 -5.796875 "/></g></g></g></g></g></g></svg>